<svg width="20" height="21" viewBox="0 0 20 21" fill="none" xmlns="http://www.w3.org/2000/svg">
<g clip-path="url(#clip0_561_40)">
<path d="M20 20.5H0V0.5H20V20.5Z" stroke="#E5E7EB"/>
<path d="M5.28125 5.08594L4.26172 8H15.7383L14.7188 5.08594C14.543 4.58594 14.0703 4.25 13.5391 4.25H6.46094C5.92969 4.25 5.45703 4.58594 5.28125 5.08594ZM1.54688 8.1875L2.92188 4.26172C3.44922 2.75781 4.86719 1.75 6.46094 1.75H13.5391C15.1328 1.75 16.5508 2.75781 17.0781 4.26172L18.4531 8.1875C19.3594 8.5625 20 9.45703 20 10.5V16.125V18C20 18.6914 19.4414 19.25 18.75 19.25H17.5C16.8086 19.25 16.25 18.6914 16.25 18V16.125H3.75V18C3.75 18.6914 3.19141 19.25 2.5 19.25H1.25C0.558594 19.25 0 18.6914 0 18V16.125V10.5C0 9.45703 0.640625 8.5625 1.54688 8.1875ZM5 11.75C5 11.4185 4.8683 11.1005 4.63388 10.8661C4.39946 10.6317 4.08152 10.5 3.75 10.5C3.41848 10.5 3.10054 10.6317 2.86612 10.8661C2.6317 11.1005 2.5 11.4185 2.5 11.75C2.5 12.0815 2.6317 12.3995 2.86612 12.6339C3.10054 12.8683 3.41848 13 3.75 13C4.08152 13 4.39946 12.8683 4.63388 12.6339C4.8683 12.3995 5 12.0815 5 11.75ZM16.25 13C16.5815 13 16.8995 12.8683 17.1339 12.6339C17.3683 12.3995 17.5 12.0815 17.5 11.75C17.5 11.4185 17.3683 11.1005 17.1339 10.8661C16.8995 10.6317 16.5815 10.5 16.25 10.5C15.9185 10.5 15.6005 10.6317 15.3661 10.8661C15.1317 11.1005 15 11.4185 15 11.75C15 12.0815 15.1317 12.3995 15.3661 12.6339C15.6005 12.8683 15.9185 13 16.25 13Z" fill="#349A51"/>
</g>
<defs>
<clipPath id="clip0_561_40">
<rect width="20" height="20" fill="white" transform="translate(0 0.5)"/>
</clipPath>
</defs>
</svg>
