<svg width="21" height="19" viewBox="0 0 21 19" fill="none" xmlns="http://www.w3.org/2000/svg">
<path d="M0 1.09375C0 0.626172 0.376172 0.25 0.84375 0.25H2.44336C3.2168 0.25 3.90234 0.7 4.22227 1.375H18.6715C19.5961 1.375 20.2711 2.25391 20.0285 3.14688L18.5871 8.50117C18.2883 9.60508 17.2863 10.375 16.1438 10.375H6.00117L6.19102 11.377C6.26836 11.7742 6.61641 12.0625 7.0207 12.0625H17.1562C17.6238 12.0625 18 12.4387 18 12.9062C18 13.3738 17.6238 13.75 17.1562 13.75H7.0207C5.8043 13.75 4.76016 12.8852 4.53516 11.6934L2.72109 2.16602C2.69648 2.03242 2.58047 1.9375 2.44336 1.9375H0.84375C0.376172 1.9375 0 1.56133 0 1.09375ZM4.5 16.5625C4.5 16.3409 4.54365 16.1215 4.62845 15.9167C4.71326 15.712 4.83756 15.526 4.99426 15.3693C5.15096 15.2126 5.33698 15.0883 5.54172 15.0035C5.74646 14.9186 5.96589 14.875 6.1875 14.875C6.40911 14.875 6.62854 14.9186 6.83328 15.0035C7.03802 15.0883 7.22404 15.2126 7.38074 15.3693C7.53744 15.526 7.66174 15.712 7.74655 15.9167C7.83135 16.1215 7.875 16.3409 7.875 16.5625C7.875 16.7841 7.83135 17.0035 7.74655 17.2083C7.66174 17.413 7.53744 17.599 7.38074 17.7557C7.22404 17.9124 7.03802 18.0367 6.83328 18.1215C6.62854 18.2064 6.40911 18.25 6.1875 18.25C5.96589 18.25 5.74646 18.2064 5.54172 18.1215C5.33698 18.0367 5.15096 17.9124 4.99426 17.7557C4.83756 17.599 4.71326 17.413 4.62845 17.2083C4.54365 17.0035 4.5 16.7841 4.5 16.5625ZM16.3125 14.875C16.7601 14.875 17.1893 15.0528 17.5057 15.3693C17.8222 15.6857 18 16.1149 18 16.5625C18 17.0101 17.8222 17.4393 17.5057 17.7557C17.1893 18.0722 16.7601 18.25 16.3125 18.25C15.8649 18.25 15.4357 18.0722 15.1193 17.7557C14.8028 17.4393 14.625 17.0101 14.625 16.5625C14.625 16.1149 14.8028 15.6857 15.1193 15.3693C15.4357 15.0528 15.8649 14.875 16.3125 14.875Z" fill="#349A51"/>
</svg>
