<svg width="38" height="31" viewBox="0 0 38 31" fill="none" xmlns="http://www.w3.org/2000/svg">
<g clip-path="url(#clip0_561_453)">
<g clip-path="url(#clip1_561_453)">
<path d="M8.6875 28.875C4.0293 28.875 0.25 25.0957 0.25 20.4375C0.25 16.7578 2.60547 13.6289 5.88672 12.4746C5.88086 12.3164 5.875 12.1582 5.875 12C5.875 6.82031 10.0703 2.625 15.25 2.625C18.7246 2.625 21.7539 4.51172 23.377 7.32422C24.2676 6.72656 25.3457 6.375 26.5 6.375C29.6055 6.375 32.125 8.89453 32.125 12C32.125 12.7148 31.9902 13.3945 31.75 14.0273C35.1719 14.7188 37.75 17.748 37.75 21.375C37.75 25.5176 34.3926 28.875 30.25 28.875H8.6875ZM13.3164 16.1602C12.7656 16.7109 12.7656 17.6016 13.3164 18.1465C13.8672 18.6914 14.7578 18.6973 15.3027 18.1465L17.5879 15.8613V23.7188C17.5879 24.498 18.2148 25.125 18.9941 25.125C19.7734 25.125 20.4004 24.498 20.4004 23.7188V15.8613L22.6855 18.1465C23.2363 18.6973 24.127 18.6973 24.6719 18.1465C25.2168 17.5957 25.2227 16.7051 24.6719 16.1602L19.9844 11.4727C19.4336 10.9219 18.543 10.9219 17.998 11.4727L13.3105 16.1602H13.3164Z" fill="#9CA3AF"/>
</g>
</g>
<defs>
<clipPath id="clip0_561_453">
<rect width="37.5" height="30" fill="white" transform="translate(0.25 0.75)"/>
</clipPath>
<clipPath id="clip1_561_453">
<path d="M0.25 0.75H37.75V30.75H0.25V0.75Z" fill="white"/>
</clipPath>
</defs>
</svg>
