<svg width="12" height="19" viewBox="0 0 12 19" fill="none" xmlns="http://www.w3.org/2000/svg">
<g clip-path="url(#clip0_561_81)">
<g clip-path="url(#clip1_561_81)">
<path d="M5.62505 0.25C6.24732 0.25 6.75005 0.752734 6.75005 1.375V2.63008C6.8063 2.63711 6.85904 2.64414 6.91529 2.65469C6.92935 2.6582 6.93989 2.6582 6.95396 2.66172L8.64146 2.97109C9.25318 3.08359 9.65747 3.6707 9.54497 4.27891C9.43247 4.88711 8.84536 5.29492 8.23716 5.18242L6.56724 4.87656C5.46685 4.71484 4.49654 4.82383 3.8145 5.09453C3.13247 5.36523 2.85825 5.73789 2.79497 6.08242C2.72466 6.45859 2.77739 6.66953 2.83716 6.79961C2.90044 6.93672 3.03052 7.09141 3.28716 7.26367C3.86021 7.63984 4.73911 7.88594 5.87818 8.18828L5.98013 8.21641C6.9856 8.48359 8.21607 8.80703 9.13013 9.40469C9.62935 9.73164 10.1004 10.1746 10.3922 10.7934C10.6911 11.4227 10.7543 12.1258 10.6172 12.8746C10.3747 14.2105 9.45357 15.1035 8.31099 15.5711C7.82935 15.768 7.30552 15.8945 6.75005 15.9578V17.125C6.75005 17.7473 6.24732 18.25 5.62505 18.25C5.00279 18.25 4.50005 17.7473 4.50005 17.125V15.898C4.48599 15.8945 4.46841 15.8945 4.45435 15.891H4.44732C3.5895 15.7574 2.17974 15.3883 1.23052 14.9664C0.664504 14.7133 0.407863 14.0488 0.660988 13.4828C0.914113 12.9168 1.57857 12.6602 2.14458 12.9133C2.87935 13.2402 4.08872 13.5637 4.78833 13.6727C5.90982 13.8379 6.83443 13.743 7.46021 13.4863C8.05435 13.2437 8.32505 12.8922 8.40239 12.4703C8.46919 12.0977 8.41646 11.8832 8.35669 11.7531C8.28989 11.6125 8.15982 11.4578 7.89966 11.2855C7.3231 10.9094 6.44068 10.6633 5.2981 10.3609L5.19966 10.3363C4.19771 10.0691 2.96724 9.74219 2.05318 9.14453C1.55396 8.81758 1.08638 8.37109 0.794582 7.75234C0.49927 7.12305 0.439504 6.41992 0.580129 5.67109C0.833254 4.32812 1.83872 3.45625 2.9813 3.00273C3.44888 2.81641 3.96216 2.68984 4.50005 2.61602V1.375C4.50005 0.752734 5.00279 0.25 5.62505 0.25Z" fill="#349A51"/>
</g>
</g>
<defs>
<clipPath id="clip0_561_81">
<rect width="11.25" height="18" fill="white" transform="translate(0 0.25)"/>
</clipPath>
<clipPath id="clip1_561_81">
<path d="M0 0.25H11.25V18.25H0V0.25Z" fill="white"/>
</clipPath>
</defs>
</svg>
