<svg width="15" height="15" viewBox="0 0 15 15" fill="none" xmlns="http://www.w3.org/2000/svg">
<g clip-path="url(#clip0_561_103)">
<path d="M13.1609 1.34365C12.5621 0.744824 11.5941 0.744824 10.9953 1.34365L10.1723 2.16396L12.8492 4.84092L13.6723 4.01787C14.2711 3.41904 14.2711 2.45107 13.6723 1.85225L13.1609 1.34365ZM4.97969 7.35928C4.81289 7.52607 4.68437 7.73115 4.61055 7.95811L3.80117 10.3862C3.72187 10.6214 3.78477 10.8812 3.95977 11.0589C4.13477 11.2366 4.39453 11.2968 4.63242 11.2175L7.06055 10.4081C7.28477 10.3343 7.48984 10.2058 7.65937 10.039L12.234 5.46162L9.5543 2.78193L4.97969 7.35928ZM2.89062 2.50029C1.44141 2.50029 0.265625 3.67607 0.265625 5.12529V12.1253C0.265625 13.5745 1.44141 14.7503 2.89062 14.7503H9.89062C11.3398 14.7503 12.5156 13.5745 12.5156 12.1253V9.50029C12.5156 9.01631 12.1246 8.62529 11.6406 8.62529C11.1566 8.62529 10.7656 9.01631 10.7656 9.50029V12.1253C10.7656 12.6093 10.3746 13.0003 9.89062 13.0003H2.89062C2.40664 13.0003 2.01562 12.6093 2.01562 12.1253V5.12529C2.01562 4.64131 2.40664 4.25029 2.89062 4.25029H5.51562C5.99961 4.25029 6.39062 3.85928 6.39062 3.37529C6.39062 2.89131 5.99961 2.50029 5.51562 2.50029H2.89062Z" fill="white"/>
</g>
<defs>
<clipPath id="clip0_561_103">
<path d="M0.265625 0.75H14.2656V14.75H0.265625V0.75Z" fill="white"/>
</clipPath>
</defs>
</svg>
