<svg width="21" height="19" viewBox="0 0 21 19" fill="none" xmlns="http://www.w3.org/2000/svg">
<g clip-path="url(#clip0_561_64)">
<path d="M10.125 1.375C7.28435 1.375 5.00974 2.66875 3.35388 4.20859C1.70857 5.73438 0.608179 7.5625 0.0878662 8.81758C-0.0281494 9.09531 -0.0281494 9.40469 0.0878662 9.68242C0.608179 10.9375 1.70857 12.7656 3.35388 14.2914C5.00974 15.8313 7.28435 17.125 10.125 17.125C12.9656 17.125 15.2402 15.8313 16.8961 14.2914C18.5414 12.7621 19.6418 10.9375 20.1656 9.68242C20.2816 9.40469 20.2816 9.09531 20.1656 8.81758C19.6418 7.5625 18.5414 5.73438 16.8961 4.20859C15.2402 2.66875 12.9656 1.375 10.125 1.375ZM5.06248 9.25C5.06248 7.90734 5.59584 6.61967 6.54525 5.67027C7.49465 4.72087 8.78232 4.1875 10.125 4.1875C11.4676 4.1875 12.7553 4.72087 13.7047 5.67027C14.6541 6.61967 15.1875 7.90734 15.1875 9.25C15.1875 10.5927 14.6541 11.8803 13.7047 12.8297C12.7553 13.7791 11.4676 14.3125 10.125 14.3125C8.78232 14.3125 7.49465 13.7791 6.54525 12.8297C5.59584 11.8803 5.06248 10.5927 5.06248 9.25ZM10.125 7C10.125 8.24102 9.11599 9.25 7.87498 9.25C7.62537 9.25 7.3863 9.20781 7.1613 9.13398C6.96794 9.0707 6.74294 9.19023 6.74998 9.39414C6.76052 9.63672 6.79568 9.8793 6.86248 10.1219C7.34412 11.9219 9.19685 12.9906 10.9969 12.509C12.7969 12.0273 13.8656 10.1746 13.384 8.37461C12.9937 6.91563 11.7035 5.93477 10.2691 5.875C10.0652 5.86797 9.94568 6.08945 10.009 6.28633C10.0828 6.51133 10.125 6.75039 10.125 7Z" fill="#349A51"/>
</g>
<defs>
<clipPath id="clip0_561_64">
<path d="M0 0.25H20.25V18.25H0V0.25Z" fill="white"/>
</clipPath>
</defs>
</svg>
