<svg width="20" height="20" viewBox="0 0 20 20" fill="none" xmlns="http://www.w3.org/2000/svg">
<g clip-path="url(#clip0_561_186)">
<path d="M20 20H0V0H20V20Z" stroke="#E5E7EB"/>
<path d="M0 3.75C0 2.37109 1.12109 1.25 2.5 1.25H17.5C18.8789 1.25 20 2.37109 20 3.75V16.25C20 17.6289 18.8789 18.75 17.5 18.75H2.5C1.12109 18.75 0 17.6289 0 16.25V3.75ZM1.875 14.375V15.625C1.875 15.9688 2.15625 16.25 2.5 16.25H3.75C4.09375 16.25 4.375 15.9688 4.375 15.625V14.375C4.375 14.0312 4.09375 13.75 3.75 13.75H2.5C2.15625 13.75 1.875 14.0312 1.875 14.375ZM16.25 13.75C15.9062 13.75 15.625 14.0312 15.625 14.375V15.625C15.625 15.9688 15.9062 16.25 16.25 16.25H17.5C17.8438 16.25 18.125 15.9688 18.125 15.625V14.375C18.125 14.0312 17.8438 13.75 17.5 13.75H16.25ZM1.875 9.375V10.625C1.875 10.9688 2.15625 11.25 2.5 11.25H3.75C4.09375 11.25 4.375 10.9688 4.375 10.625V9.375C4.375 9.03125 4.09375 8.75 3.75 8.75H2.5C2.15625 8.75 1.875 9.03125 1.875 9.375ZM16.25 8.75C15.9062 8.75 15.625 9.03125 15.625 9.375V10.625C15.625 10.9688 15.9062 11.25 16.25 11.25H17.5C17.8438 11.25 18.125 10.9688 18.125 10.625V9.375C18.125 9.03125 17.8438 8.75 17.5 8.75H16.25ZM1.875 4.375V5.625C1.875 5.96875 2.15625 6.25 2.5 6.25H3.75C4.09375 6.25 4.375 5.96875 4.375 5.625V4.375C4.375 4.03125 4.09375 3.75 3.75 3.75H2.5C2.15625 3.75 1.875 4.03125 1.875 4.375ZM16.25 3.75C15.9062 3.75 15.625 4.03125 15.625 4.375V5.625C15.625 5.96875 15.9062 6.25 16.25 6.25H17.5C17.8438 6.25 18.125 5.96875 18.125 5.625V4.375C18.125 4.03125 17.8438 3.75 17.5 3.75H16.25ZM6.25 5V7.5C6.25 8.19141 6.80859 8.75 7.5 8.75H12.5C13.1914 8.75 13.75 8.19141 13.75 7.5V5C13.75 4.30859 13.1914 3.75 12.5 3.75H7.5C6.80859 3.75 6.25 4.30859 6.25 5ZM7.5 11.25C6.80859 11.25 6.25 11.8086 6.25 12.5V15C6.25 15.6914 6.80859 16.25 7.5 16.25H12.5C13.1914 16.25 13.75 15.6914 13.75 15V12.5C13.75 11.8086 13.1914 11.25 12.5 11.25H7.5Z" fill="#7A7A7A"/>
</g>
<defs>
<clipPath id="clip0_561_186">
<rect width="20" height="20" fill="white"/>
</clipPath>
</defs>
</svg>
