<svg width="23" height="21" viewBox="0 0 23 21" fill="none" xmlns="http://www.w3.org/2000/svg">
<g clip-path="url(#clip0_561_92)">
<path d="M21.3907 4.55469L19.1524 1.01172C18.9532 0.695312 18.5977 0.5 18.2188 0.5H4.28129C3.90238 0.5 3.54691 0.695312 3.34769 1.01172L1.1055 4.55469C-0.0507456 6.38281 0.972692 8.92578 3.13285 9.21875C3.2891 9.23828 3.44925 9.25 3.6055 9.25C4.62504 9.25 5.53129 8.80469 6.15238 8.11719C6.77347 8.80469 7.67972 9.25 8.69925 9.25C9.71879 9.25 10.625 8.80469 11.2461 8.11719C11.8672 8.80469 12.7735 9.25 13.793 9.25C14.8164 9.25 15.7188 8.80469 16.3399 8.11719C16.9649 8.80469 17.8672 9.25 18.8868 9.25C19.0469 9.25 19.2032 9.23828 19.3594 9.21875C21.5274 8.92969 22.5547 6.38672 21.3946 4.55469H21.3907ZM19.5196 10.457H19.5157C19.3086 10.4844 19.0977 10.5 18.8828 10.5C18.3985 10.5 17.9336 10.4258 17.5 10.293V15.5H5.00004V10.2891C4.56254 10.4258 4.09379 10.5 3.60941 10.5C3.39457 10.5 3.17972 10.4844 2.97269 10.457H2.96879C2.80863 10.4336 2.65238 10.4062 2.50004 10.3672V15.5V18C2.50004 19.3789 3.62113 20.5 5.00004 20.5H17.5C18.8789 20.5 20 19.3789 20 18V15.5V10.3672C19.8438 10.4062 19.6875 10.4375 19.5196 10.457Z" fill="white"/>
</g>
<defs>
<clipPath id="clip0_561_92">
<path d="M0 0.5H22.5V20.5H0V0.5Z" fill="white"/>
</clipPath>
</defs>
</svg>
